<?xml version="1.0" encoding="UTF-8" standalone="no"?> <svg xmlns:inkscape="http://www.inkscape.org/namespaces/inkscape" xmlns:sodipodi="http://sodipodi.sourceforge.net/DTD/sodipodi-0.dtd" xmlns="http://www.w3.org/2000/svg" xmlns:svg="http://www.w3.org/2000/svg" width="297mm" height="100mm" viewBox="0 0 297 100" version="1.1" id="svg1" xml:space="preserve" inkscape:version="1.3.2 (1:1.3.2+202311252150+091e20ef0f)" sodipodi:docname="logo.svg"><defs id="defs1"></defs><g inkscape:label="Layer 1" inkscape:groupmode="layer" id="layer1"><text xml:space="preserve" style="font-style:normal;font-variant:normal;font-weight:normal;font-stretch:normal;font-size:74.9143px;line-height:1.25;font-family:Nunito;-inkscape-font-specification:'Nunito, Normal';font-variant-ligatures:normal;font-variant-caps:normal;font-variant-numeric:normal;font-variant-east-asian:normal;fill:#b4b4b4;fill-opacity:1;stroke:none;stroke-width:1.87286" x="82.177216" y="77.878166" id="text1"><tspan sodipodi:role="line" id="tspan1" style="font-style:normal;font-variant:normal;font-weight:normal;font-stretch:normal;font-size:74.9143px;font-family:Nunito;-inkscape-font-specification:'Nunito, Normal';font-variant-ligatures:normal;font-variant-caps:normal;font-variant-numeric:normal;font-variant-east-asian:normal;fill:#b4b4b4;fill-opacity:1;stroke-width:1.87286" x="82.177216" y="77.878166">PIFEX</tspan></text><text xml:space="preserve" style="font-style:normal;font-variant:normal;font-weight:normal;font-stretch:normal;font-size:74.9143px;line-height:1.25;font-family:Nunito;-inkscape-font-specification:'Nunito, Normal';font-variant-ligatures:normal;font-variant-caps:normal;font-variant-numeric:normal;font-variant-east-asian:normal;fill:#cccccc;fill-opacity:1;stroke:none;stroke-width:1.87286" x="79.309372" y="75.374901" id="text1-1"><tspan sodipodi:role="line" id="tspan1-0" style="font-style:normal;font-variant:normal;font-weight:normal;font-stretch:normal;font-size:74.9143px;font-family:Nunito;-inkscape-font-specification:'Nunito, Normal';font-variant-ligatures:normal;font-variant-caps:normal;font-variant-numeric:normal;font-variant-east-asian:normal;fill:#cccccc;fill-opacity:1;stroke-width:1.87286" x="79.309372" y="75.374901">PIFEX</tspan></text><path d="m 40.453828,26.242416 c 0.555727,1.87836 -0.511266,3.86787 -2.38962,4.4236 -8.824926,2.63416 -15.249115,10.80337 -15.249115,20.46194 0,11.78145 9.558483,21.33992 21.339868,21.33992 11.78139,0 21.339871,-9.55847 21.339871,-21.33992 0,-9.65857 -6.424187,-17.82778 -15.237999,-20.46194 -1.878355,-0.55573 -2.956464,-2.54524 -2.389621,-4.4236 0.566838,-1.87836 2.545225,-2.95648 4.423575,-2.38964 11.748044,3.5011 20.317337,14.38227 20.317337,27.27518 0,15.71598 -12.737235,28.45322 -28.453163,28.45322 -15.715923,0 -28.453158,-12.73724 -28.453158,-28.45322 0,-12.89291 8.569291,-23.77408 20.328449,-27.27518 1.878353,-0.55572 3.867852,0.51128 4.423576,2.38964 z" id="path1" style="fill:#b2b2b2;fill-opacity:1;stroke-width:0.111145"></path><path d="m 38.989518,24.414756 c 0.555727,1.87836 -0.511266,3.86787 -2.38962,4.4236 -8.824926,2.63416 -15.249115,10.80337 -15.249115,20.46194 0,11.78146 9.558483,21.33993 21.339868,21.33993 11.78139,0 21.339871,-9.55847 21.339871,-21.33993 0,-9.65857 -6.424187,-17.82778 -15.237999,-20.46194 -1.878355,-0.55573 -2.956464,-2.54524 -2.389621,-4.4236 0.566838,-1.87837 2.545225,-2.95648 4.423575,-2.38964 11.748044,3.50109 20.317337,14.38227 20.317337,27.27518 0,15.71599 -12.737235,28.45323 -28.453163,28.45323 -15.715923,0 -28.453158,-12.73724 -28.453158,-28.45323 0,-12.89291 8.569291,-23.77409 20.328449,-27.27518 1.878353,-0.55573 3.867852,0.51127 4.423576,2.38964 z" id="path1-5" style="fill:#31344b;fill-opacity:1;stroke-width:0.111145"></path></g></svg> 